<svg width="109" height="109" viewBox="0 0 109 109" fill="none" xmlns="http://www.w3.org/2000/svg">
<g filter="url(#filter0_f_149_247)">
<path d="M55.2689 38.5169C48.7169 38.5169 44.6849 44.9969 44.6849 53.4929C46.9889 49.8209 50.9489 47.1569 56.7809 47.1569C67.2209 47.1569 74.7809 54.5729 74.7809 64.5089C74.7809 74.6609 66.9329 82.3649 54.9089 82.3649C42.1649 82.3649 33.3089 72.6449 33.3089 56.6609C33.3089 40.0289 42.5249 29.2289 55.7009 29.2289C65.9969 29.2289 72.9809 35.4929 74.2049 44.1329H62.9009C61.9649 40.8209 59.7329 38.5169 55.2689 38.5169ZM54.8369 73.5809C60.0209 73.5809 63.4049 69.8369 63.4049 64.5809C63.4049 59.3969 60.0209 55.7249 54.8369 55.7249C49.5809 55.7249 46.0529 59.3969 46.0529 64.5809C46.0529 69.8369 49.5809 73.5809 54.8369 73.5809Z" fill="black"/>
</g>
<g filter="url(#filter1_f_149_247)">
<path d="M103.634 54.5009L104.122 55.1244L104.591 55.76L105.03 56.4067L105.428 57.0629L105.775 57.7267L106.063 58.3959L106.283 59.0677L106.431 59.7391L106.501 60.4071L106.49 61.0686L106.397 61.7205L106.223 62.36L105.97 62.9846L105.641 63.5919L105.243 64.1804L104.782 64.7489L104.266 65.2969L103.705 65.8244L103.109 66.3323L102.488 66.8219L101.854 67.2954L101.217 67.7554L100.588 68.2051L99.979 68.6483L99.3983 69.0889L98.8551 69.5312L98.3572 69.9795L97.911 70.4383L97.5215 70.9116L97.1922 71.4036L96.9249 71.9175L96.7198 72.4565L96.5755 73.0229L96.4889 73.6182L96.4555 74.2432L96.4695 74.8978L96.5237 75.581L96.6101 76.2909L96.7196 77.0246L96.8428 77.7785L96.9698 78.5482L97.0904 79.3284L97.1949 80.1135L97.2737 80.8973L97.3178 81.6733L97.3191 82.435L97.2704 83.1759L97.1658 83.8895L97.0004 84.5699L96.7708 85.2117L96.4751 85.8103L96.1127 86.3616L95.6847 86.8628L95.1934 87.3121L94.6423 87.7088L94.0365 88.0532L93.3818 88.3472L92.685 88.5935L91.9539 88.7962L91.1965 88.9603L90.4211 89.0919L89.6365 89.1977L88.851 89.2854L88.0727 89.3628L87.3094 89.4385L86.5681 89.5206L85.8548 89.6177L85.1749 89.7376L84.5324 89.8878L83.9304 90.075L83.3706 90.3051L82.8538 90.5828L82.3793 90.9116L81.9455 91.2938L81.5496 91.7302L81.1878 92.2202L80.8558 92.7616L80.5481 93.351L80.259 93.9836L79.9822 94.6531L79.7115 95.3523L79.4404 96.073L79.1626 96.806L78.8721 97.5419L78.5634 98.2705L78.2315 98.9818L77.8721 99.6657L77.4817 100.313L77.0577 100.914L76.5983 101.46L76.1027 101.946L75.571 102.364L75.0041 102.71L74.4037 102.981L73.7725 103.175L73.1134 103.293L72.4303 103.337L71.7272 103.309L71.0085 103.215L70.2788 103.06L69.5426 102.854L68.8044 102.604L68.0684 102.32L67.3383 102.013L66.6177 101.693L65.9094 101.372L65.2156 101.06L64.538 100.768L63.8776 100.507L63.2346 100.285L62.6087 100.11L61.9989 99.9901L61.4038 99.93L60.8213 99.9337L60.2492 100.003L59.6846 100.14L59.1248 100.341L58.5669 100.605L58.0079 100.926L57.4452 101.299L56.8762 101.716L56.2987 102.168L55.7111 102.646L55.1121 103.138L54.5009 103.634L53.8773 104.122L53.2417 104.591L52.595 105.03L51.9388 105.428L51.275 105.775L50.6058 106.063L49.934 106.283L49.2626 106.431L48.5946 106.501L47.9331 106.49L47.2812 106.397L46.6417 106.223L46.0171 105.97L45.4098 105.641L44.8213 105.243L44.2528 104.782L43.7048 104.266L43.1773 103.705L42.6694 103.109L42.1798 102.488L41.7063 101.854L41.2463 101.217L40.7966 100.588L40.3534 99.979L39.9128 99.3983L39.4705 98.8551L39.0222 98.3572L38.5634 97.911L38.0901 97.5215L37.5981 97.1922L37.0842 96.9249L36.5452 96.7198L35.9788 96.5755L35.3835 96.4889L34.7585 96.4555L34.1039 96.4695L33.4207 96.5237L32.7108 96.6101L31.9771 96.7196L31.2232 96.8428L30.4535 96.9698L29.6733 97.0904L28.8882 97.1949L28.1044 97.2737L27.3284 97.3178L26.5667 97.3191L25.8258 97.2704L25.1122 97.1658L24.4318 97.0004L23.79 96.7708L23.1914 96.4751L22.6401 96.1127L22.1389 95.6847L21.6896 95.1934L21.2929 94.6423L20.9485 94.0365L20.6545 93.3818L20.4082 92.685L20.2055 91.9539L20.0414 91.1965L19.9098 90.4211L19.804 89.6365L19.7164 88.851L19.6389 88.0727L19.5633 87.3094L19.4811 86.5681L19.384 85.8548L19.2641 85.1749L19.1139 84.5324L18.9267 83.9304L18.6966 83.3706L18.4189 82.8538L18.0901 82.3793L17.7079 81.9455L17.2715 81.5496L16.7815 81.1878L16.2401 80.8558L15.6507 80.5481L15.0182 80.259L14.3486 79.9822L13.6494 79.7115L12.9287 79.4404L12.1957 79.1626L11.4598 78.8721L10.7312 78.5634L10.0199 78.2315L9.33602 77.8721L8.68905 77.4817L8.08809 77.0577L7.54133 76.5983L7.05596 76.1027L6.63794 75.571L6.29186 75.0041L6.02081 74.4037L5.82632 73.7725L5.70827 73.1134L5.66487 72.4303L5.69277 71.7272L5.78702 71.0085L5.94126 70.2788L6.14782 69.5426L6.3979 68.8044L6.68178 68.0684L6.98905 67.3383L7.30885 66.6177L7.63013 65.9094L7.94191 65.2156L8.23355 64.538L8.49499 63.8776L8.71703 63.2346L8.89152 62.6087L9.01156 61.9989L9.07169 61.4038L9.06802 60.8213L8.99834 60.2492L8.86214 59.6846L8.66066 59.1248L8.39688 58.5669L8.0754 58.0079L7.7024 57.4452L7.28543 56.8762L6.83329 56.2987L6.35578 55.7111L5.86351 55.1121L5.3676 54.5009L4.87944 53.8773L4.41045 53.2417L3.97173 52.595L3.57389 51.9388L3.22671 51.275L2.93898 50.6058L2.71826 49.934L2.57068 49.2626L2.50085 48.5946L2.51172 47.9331L2.6045 47.2812L2.77866 46.6417L3.03197 46.0171L3.36049 45.4098L3.75873 44.8213L4.21978 44.2528L4.73543 43.7048L5.29644 43.1773L5.89272 42.6694L6.51357 42.1798L7.14798 41.7063L7.78483 41.2463L8.41322 40.7966L9.02268 40.3534L9.60344 39.9128L10.1466 39.4705L10.6446 39.0222L11.0907 38.5634L11.4802 38.0901L11.8095 37.5981L12.0768 37.0842L12.2819 36.5452L12.4262 35.9788L12.5128 35.3835L12.5462 34.7585L12.5322 34.1039L12.478 33.4207L12.3916 32.7108L12.2821 31.9771L12.1589 31.2232L12.032 30.4535L11.9113 29.6733L11.8068 28.8882L11.728 28.1044L11.6839 27.3284L11.6826 26.5667L11.7313 25.8258L11.8359 25.1122L12.0014 24.4318L12.2309 23.79L12.5266 23.1914L12.889 22.6401L13.317 22.1389L13.8083 21.6896L14.3594 21.2929L14.9652 20.9485L15.6199 20.6545L16.3167 20.4082L17.0478 20.2055L17.8053 20.0414L18.5806 19.9098L19.3652 19.804L20.1507 19.7164L20.929 19.6389L21.6923 19.5633L22.4336 19.4811L23.1469 19.384L23.8268 19.2641L24.4693 19.1139L25.0713 18.9267L25.6311 18.6966L26.1479 18.4189L26.6224 18.0901L27.0562 17.7079L27.4521 17.2715L27.8139 16.7815L28.1459 16.2401L28.4536 15.6507L28.7428 15.0182L29.0195 14.3486L29.2902 13.6494L29.5613 12.9287L29.8391 12.1957L30.1296 11.4598L30.4383 10.7312L30.7702 10.0199L31.1296 9.33602L31.52 8.68905L31.944 8.08809L32.4034 7.54133L32.899 7.05596L33.4307 6.63794L33.9976 6.29186L34.598 6.02081L35.2292 5.82632L35.8883 5.70827L36.5714 5.66487L37.2745 5.69277L37.9932 5.78702L38.7229 5.94126L39.4591 6.14782L40.1973 6.3979L40.9334 6.68178L41.6634 6.98905L42.384 7.30885L43.0923 7.63013L43.7861 7.94191L44.4637 8.23355L45.1241 8.49499L45.7671 8.71703L46.393 8.89152L47.0028 9.01156L47.5979 9.07169L48.1804 9.06802L48.7525 8.99834L49.3171 8.86214L49.8769 8.66066L50.4348 8.39688L50.9938 8.0754L51.5565 7.7024L52.1255 7.28543L52.703 6.83329L53.2906 6.35578L53.8896 5.86351L54.5009 5.3676L55.1244 4.87944L55.76 4.41045L56.4067 3.97173L57.0629 3.57389L57.7267 3.22671L58.3959 2.93898L59.0677 2.71826L59.7391 2.57068L60.4071 2.50085L61.0686 2.51172L61.7205 2.6045L62.36 2.77866L62.9846 3.03197L63.5919 3.36049L64.1804 3.75873L64.7489 4.21978L65.2969 4.73543L65.8244 5.29644L66.3323 5.89272L66.8219 6.51357L67.2954 7.14798L67.7554 7.78483L68.2051 8.41322L68.6483 9.02268L69.0889 9.60344L69.5312 10.1466L69.9795 10.6446L70.4383 11.0907L70.9116 11.4802L71.4036 11.8095L71.9175 12.0768L72.4565 12.2819L73.0229 12.4262L73.6182 12.5128L74.2432 12.5462L74.8978 12.5322L75.581 12.478L76.2909 12.3916L77.0246 12.2821L77.7785 12.1589L78.5482 12.032L79.3284 11.9113L80.1135 11.8068L80.8973 11.728L81.6733 11.6839L82.435 11.6826L83.1759 11.7313L83.8895 11.8359L84.5699 12.0014L85.2117 12.2309L85.8103 12.5266L86.3616 12.889L86.8628 13.317L87.3121 13.8083L87.7088 14.3594L88.0532 14.9652L88.3472 15.6199L88.5935 16.3167L88.7962 17.0478L88.9603 17.8053L89.0919 18.5806L89.1977 19.3652L89.2854 20.1507L89.3628 20.929L89.4385 21.6923L89.5206 22.4336L89.6177 23.1469L89.7376 23.8268L89.8878 24.4693L90.075 25.0713L90.3051 25.6311L90.5828 26.1479L90.9116 26.6224L91.2938 27.0562L91.7302 27.4521L92.2202 27.8139L92.7616 28.1459L93.351 28.4536L93.9836 28.7428L94.6531 29.0195L95.3523 29.2902L96.073 29.5613L96.806 29.8391L97.5419 30.1296L98.2705 30.4383L98.9818 30.7702L99.6657 31.1296L100.313 31.52L100.914 31.944L101.46 32.4034L101.946 32.899L102.364 33.4307L102.71 33.9976L102.981 34.598L103.175 35.2292L103.293 35.8883L103.337 36.5714L103.309 37.2745L103.215 37.9932L103.06 38.7229L102.854 39.4591L102.604 40.1973L102.32 40.9334L102.013 41.6634L101.693 42.384L101.372 43.0923L101.06 43.7861L100.768 44.4637L100.507 45.1241L100.285 45.7671L100.11 46.393L99.9901 47.0028L99.93 47.5979L99.9337 48.1804L100.003 48.7525L100.14 49.3171L100.341 49.8769L100.605 50.4348L100.926 50.9938L101.299 51.5565L101.716 52.1255L102.168 52.703L102.646 53.2906L103.138 53.8896L103.634 54.5009Z" stroke="black" stroke-width="2"/>
</g>
<defs>
<filter id="filter0_f_149_247" x="31.8088" y="27.7289" width="44.472" height="56.136" filterUnits="userSpaceOnUse" color-interpolation-filters="sRGB">
<feFlood flood-opacity="0" result="BackgroundImageFix"/>
<feBlend mode="normal" in="SourceGraphic" in2="BackgroundImageFix" result="shape"/>
<feGaussianBlur stdDeviation="0.75" result="effect1_foregroundBlur_149_247"/>
</filter>
<filter id="filter1_f_149_247" x="0" y="0" width="109.002" height="109.002" filterUnits="userSpaceOnUse" color-interpolation-filters="sRGB">
<feFlood flood-opacity="0" result="BackgroundImageFix"/>
<feBlend mode="normal" in="SourceGraphic" in2="BackgroundImageFix" result="shape"/>
<feGaussianBlur stdDeviation="0.75" result="effect1_foregroundBlur_149_247"/>
</filter>
</defs>
</svg>
